<svg style="fill:var(--primary, #000)" xmlns="http://www.w3.org/2000/svg" viewBox="0 0 783 116"><style>:root { --primary : navLogoColor; }</style><title>Logo</title><desc>Brand Logo for Esquire</desc><path d="M723.678 68.162c0-8.344 28.778-11.137 28.778-11.137l-.405-8.346c-4.197-.115-20.58.487-20.58-3.897 0-5.723 25.067-7.118 33.853-7.428L763.521 24c-15.141.042-83.169.224-85.952 18.635-1.504 9.94 18.082 12.288 18.082 12.288l-.006.468S670 60.132 670 72.546c0 25.328 88.462 18.236 111.36 11.933 0 0-2.217-11.249-3.227-11.771-.914-.472-19.483 2.273-34.219 1.879-11.985-.322-20.236-2.234-20.236-6.425M539.365 12.454c0 7.186-7.882 12.268-21.676 12.268-13.552 0-21.689-4.972-21.689-12.268C496 4.313 507.929 0 517.679 0c9.473 0 21.686 4.205 21.686 12.454m125.27 59.707c-1.096-.365-9.074 1.429-18.002-1.665-14.287-4.952-16.479-24.111.482-35.056L631.242 22c-28.002 10.791-33.763 11.56-36.384 12.159-1.301-3.807-7.378-10.202-20.268-9.434-7.011.418-17.43 4.353-20.443 11.521-2.031 4.83-.801 10.253 3.907 13.959 6.787 5.342 19.742 4.011 19.742 4.011-4.078 17.09-39.604 28.78-39.604 10.463V33.251H496v36.5c0 18.234 22.377 22.951 44.349 21.501 30.742-2.029 48.034-19.672 54.337-38.717l14.998-3.462s-20.526 26.752 5.086 38.918c14.613 6.941 41.483 1.591 52.283-4.164 0 0-1.793-11.458-2.418-11.666m-96.386-32.993c.277-4.56 11.614-5.73 12.303-.454 0 0-12.603 5.378-12.303.454m-76.904 36.093c-.386-.406-7.631 1.4-12.881.118-5.795-1.416-6.172-5.753-6.172-11.521L472.295 33l-43.452.009v29.122c0 3.434.289 11.795-11.901 11.795-5.481 0-11.737-.461-11.737-8.361V33H362l.037 37.103c0 21.153 35.482 27.622 71.938 13.812 0 0 17.064 13.488 59.733 3.57 0 0-1.863-11.698-2.363-12.224m-141.858 33.267-.017-76.084-39.54.006s1.339 27.446-.74 32.78c-3.535 11.595-32.026 9.948-32.02-3.57.01-15.716 29.016-13.014 29.016-13.014l-2.904-16.23s-67.061-6.24-70.273 29.605c-.72 24.985 43.789 35.4 76.703 23.102l-.015 29.672 39.79-6.267z"></path><path d="M220.77 72.023c3.977-4.04 3.738-8.954.363-14.307-4.982-7.902-18.742-12.529-22.03-18.8-1.444-2.757-1.389-6.03.757-10.06l-.74-3.31-46.432 5.13c-2.749 6.191.055 11.021.257 11.59-33.54 35.916-87.932 36.241-89.38 23.582-1.358-11.872 35.83-14.495 35.83-14.495l-.728-11.834s-25.049 1.97-25.425-5.74c-.388-7.95 23.044-10.52 36.63-10.677l-3.468-19.085c-43.989-.48-85.107 9.211-88.885 25.83-1.134 4.984 2.195 13.752 20.34 17.41v.637S-.258 53.911.001 70.451C.231 85.164 33.11 91.7 56.326 91.862c47.044.328 71.845-15.263 71.845-15.263-6.574 17.985 44.935 20.157 80.695 7.25 1.702-.615 15.444 5.236 23.79 8.925 0 0 5.337-12.786 4.623-14.527-.65-1.583-16.509-6.224-16.509-6.224m-45.958 4.782c-4.63 5.704-22.76 5.65-21.488 1.915 1.368-4.017 19.354-3.01 21.488-1.915m-34.889-6.108s10.9-6.9 22.101-16.723c0 0 9.65 5.637 14.065 12.34 0 0-15.384-2.923-36.166 4.383"></path></svg>