<svg xmlns="http://www.w3.org/2000/svg" fill="none" viewBox="0 0 800 242" height="242" width="800">
<path fill="#53565A" d="M132.449 80.7021H168.429L90.6648 236.158C87.6545 242.107 79.1256 242.107 76.1871 236.158L0 80.7021H35.9076L83.4259 178.749L132.449 80.7021Z"></path>
<path fill="#53565A" d="M266.189 241.247C221.752 241.247 185.773 205.268 185.773 160.832C185.773 116.395 221.752 80.416 266.189 80.416C310.625 80.416 346.605 116.395 346.605 160.832C346.605 205.197 310.625 241.247 266.189 241.247ZM266.189 209.067C292.851 209.067 314.424 187.494 314.424 160.832C314.424 134.17 292.851 112.597 266.189 112.597C239.527 112.597 217.954 134.17 217.954 160.832C217.954 187.494 239.599 209.067 266.189 209.067Z"></path>
<path fill="#53565A" d="M395.27 241.247V80.416H402.58C416.27 80.416 427.379 91.5252 427.379 105.214V241.176H395.27V241.247Z"></path>
<path fill="#53565A" d="M476.187 241.247V0.429688H480.846C496.04 0.429688 508.368 12.7572 508.368 27.9516V241.175H476.187V241.247Z"></path>
<path fill="#53565A" d="M717.936 109.443V159.685C717.936 204.48 681.885 241.606 637.162 241.391C591.794 241.176 555.384 203.477 557.176 157.678C558.825 116.324 592.295 82.638 633.65 80.6312C653.288 79.6994 671.421 85.8632 685.827 96.7573V80.5595H689.124C705.035 80.4878 717.936 93.4604 717.936 109.443ZM685.827 160.975C685.827 134.385 664.182 112.74 637.592 112.74C611.002 112.74 589.357 134.385 589.357 160.975C589.357 187.565 611.002 209.21 637.592 209.21C664.182 209.21 685.827 187.565 685.827 160.975ZM601.039 32.7544C600.108 32.7544 599.248 32.8978 598.388 32.8978V0.717162C599.248 0.717162 600.179 0.645508 601.039 0.645508C636.015 0.645508 665.687 23.0071 676.725 54.256H641.104C632.432 41.2834 617.739 32.7544 601.039 32.7544Z"></path>
<path fill="#53565A" d="M766.959 176.456V0H774.987C788.318 0 799.14 10.8224 799.14 24.1534V176.456H766.959ZM767.891 224.691C767.891 215.804 775.058 208.636 783.946 208.636C792.833 208.636 800 215.804 800 224.691C800 233.578 792.833 240.745 783.946 240.745C775.058 240.817 767.891 233.578 767.891 224.691Z"></path>
</svg>
